<svg width="31" height="32" viewBox="0 0 31 32" fill="none" xmlns="http://www.w3.org/2000/svg">
<path d="M16.8074 0.969727C18.4982 0.972521 19.355 0.981475 20.0954 1.00352L20.387 1.01304C20.7238 1.02502 21.0562 1.04004 21.4569 1.05882C23.0556 1.13269 24.1462 1.38559 25.1039 1.75744C26.0942 2.1393 26.9306 2.65512 27.7656 3.49022C28.5994 4.3253 29.1153 5.16414 29.4985 6.15197C29.869 7.1085 30.122 8.20026 30.1971 9.79906C30.215 10.1997 30.2294 10.532 30.2412 10.8689L30.2507 11.1605C30.2726 11.9008 30.2827 12.7578 30.2859 14.4486L30.2871 15.5688C30.2872 15.7057 30.2872 15.8469 30.2872 15.9927L30.2871 16.4165L30.2862 17.5368C30.2833 19.2276 30.2745 20.0846 30.2524 20.8249L30.2427 21.1165C30.2309 21.4535 30.2159 21.7858 30.1971 22.1863C30.1232 23.7852 29.869 24.8756 29.4985 25.8334C29.1165 26.8238 28.5994 27.6602 27.7656 28.4952C26.9306 29.3291 26.0904 29.8448 25.1039 30.228C24.1462 30.5986 23.0556 30.8514 21.4569 30.9266C21.0562 30.9444 20.7238 30.959 20.387 30.9707L20.0954 30.9802C19.355 31.0023 18.4982 31.0122 16.8074 31.0155L15.687 31.0167C15.5502 31.0167 15.409 31.0167 15.2632 31.0167H14.8394L13.719 31.0157C12.0282 31.013 11.1713 31.0039 10.431 30.9819L10.1394 30.9724C9.8025 30.9604 9.47017 30.9454 9.06954 30.9266C7.47073 30.8528 6.38149 30.5986 5.42246 30.228C4.43337 29.8462 3.59579 29.3291 2.76071 28.4952C1.92563 27.6602 1.41106 26.82 1.02794 25.8334C0.656099 24.8756 0.404447 23.7852 0.329327 22.1863C0.311478 21.7858 0.29692 21.4535 0.285126 21.1165L0.275676 20.8249C0.253696 20.0846 0.243675 19.2276 0.24043 17.5368L0.240234 14.4486C0.243029 12.7578 0.251968 11.9008 0.274008 11.1605L0.283549 10.8689C0.295523 10.532 0.310547 10.1997 0.329327 9.79906C0.403185 8.199 0.656099 7.10975 1.02794 6.15197C1.40979 5.16289 1.92563 4.3253 2.76071 3.49022C3.59579 2.65512 4.43464 2.14055 5.42246 1.75744C6.38024 1.38559 7.46948 1.13394 9.06954 1.05882C9.47017 1.04099 9.8025 1.02643 10.1394 1.01463L10.431 1.00518C11.1713 0.983188 12.0282 0.973167 13.719 0.969922L16.8074 0.969727ZM15.2632 8.4807C11.1122 8.4807 7.75118 11.8454 7.75118 15.9927C7.75118 20.1437 11.1159 23.5047 15.2632 23.5047C19.4142 23.5047 22.7752 20.1401 22.7752 15.9927C22.7752 11.8417 19.4104 8.4807 15.2632 8.4807ZM15.2632 11.4855C17.7525 11.4855 19.7704 13.5027 19.7704 15.9927C19.7704 18.482 17.7531 20.4999 15.2632 20.4999C12.7739 20.4999 10.756 18.4828 10.756 15.9927C10.756 13.5033 12.7731 11.4855 15.2632 11.4855ZM23.1508 6.22709C22.1152 6.22709 21.2728 7.0683 21.2728 8.10382C21.2728 9.13935 22.114 9.98185 23.1508 9.98185C24.1863 9.98185 25.0288 9.14066 25.0288 8.10382C25.0288 7.0683 24.1849 6.2258 23.1508 6.22709Z" fill="#333333"/>
</svg>
